<?xml version="1.0" standalone="no"?>
<!DOCTYPE svg PUBLIC "-//W3C//DTD SVG 20010904//EN"
 "http://www.w3.org/TR/2001/REC-SVG-20010904/DTD/svg10.dtd">
<svg version="1.0" xmlns="http://www.w3.org/2000/svg"
 width="270.000000pt" height="270.000000pt" viewBox="0 0 270.000000 270.000000"
 preserveAspectRatio="xMidYMid meet">
<metadata>
Created by potrace 1.14, written by Peter Selinger 2001-2017
</metadata>
<g transform="translate(0.000000,270.000000) scale(0.100000,-0.100000)"
fill="#000000" stroke="none">
<path d="M1207 2659 c-16 -4 -37 -6 -48 -4 -10 2 -19 1 -19 -3 0 -4 -12 -8
-27 -9 -16 -1 -41 -5 -58 -8 -16 -4 -38 -6 -47 -6 -10 0 -18 -5 -18 -11 0 -6
-3 -9 -6 -5 -4 3 -21 0 -38 -7 -39 -16 -37 -15 -66 -23 -14 -4 -25 -5 -26 -2
0 2 -8 -4 -18 -14 -10 -9 -22 -15 -27 -12 -5 4 -9 1 -9 -6 0 -7 -3 -9 -7 -6
-3 4 -12 2 -20 -4 -7 -6 -13 -8 -13 -5 0 4 -10 -2 -22 -13 -11 -11 -25 -18
-30 -15 -4 3 -8 0 -8 -5 0 -6 -7 -11 -15 -11 -9 0 -18 -7 -21 -15 -4 -8 -10
-12 -15 -10 -5 3 -16 -3 -26 -15 -10 -11 -23 -20 -30 -20 -7 0 -13 -5 -13 -10
0 -6 -6 -9 -12 -8 -7 2 -12 -2 -11 -9 2 -8 -4 -10 -14 -6 -11 4 -14 3 -9 -5 4
-7 3 -12 -3 -12 -6 0 -24 -13 -41 -30 -17 -16 -35 -30 -41 -30 -6 0 -7 -4 -4
-10 3 -5 -1 -10 -10 -10 -9 0 -14 -4 -10 -9 3 -5 -4 -12 -15 -16 -11 -3 -20
-13 -20 -21 0 -8 -4 -12 -10 -9 -5 3 -10 2 -10 -4 0 -5 -13 -23 -30 -39 -16
-16 -26 -32 -23 -36 4 -3 2 -6 -4 -6 -6 0 -25 -22 -43 -50 -18 -27 -36 -50
-42 -50 -5 0 -7 -4 -3 -9 3 -5 -2 -17 -11 -25 -8 -9 -13 -16 -9 -16 3 0 -2
-12 -13 -27 -35 -52 -101 -209 -104 -250 -1 -7 -5 -13 -9 -13 -4 0 -6 -8 -4
-17 1 -10 0 -22 -4 -28 -3 -5 -6 -14 -8 -20 -1 -5 -4 -21 -8 -35 -3 -14 -7
-40 -10 -58 -2 -18 -7 -37 -10 -42 -3 -6 0 -10 7 -10 9 0 9 -3 2 -8 -6 -4 -12
-29 -13 -57 -1 -27 -3 -65 -5 -82 -1 -18 2 -33 7 -33 5 0 4 -6 -2 -13 -6 -8
-9 -16 -7 -18 2 -2 7 -31 10 -64 8 -91 15 -135 30 -192 8 -28 11 -54 8 -57 -3
-3 1 -6 8 -6 7 0 11 -3 7 -6 -3 -4 0 -21 8 -39 7 -19 11 -36 7 -39 -3 -3 0 -6
7 -6 7 0 9 -4 6 -10 -3 -5 -1 -10 5 -10 6 0 9 -4 6 -8 -3 -5 6 -30 19 -57 14
-27 25 -54 25 -62 0 -7 4 -13 9 -13 5 0 15 -16 22 -35 7 -19 17 -35 21 -35 4
0 8 -7 8 -15 0 -8 5 -15 10 -15 6 0 10 -6 10 -14 0 -7 10 -21 22 -30 13 -9 16
-14 8 -10 -8 4 -4 -6 10 -22 14 -16 28 -30 33 -32 4 -2 7 -10 7 -18 0 -9 4
-12 10 -9 5 3 10 1 10 -5 0 -6 32 -42 70 -80 39 -38 70 -67 70 -64 0 2 6 -1
14 -8 8 -7 12 -16 9 -20 -2 -5 2 -8 10 -8 7 0 22 -8 33 -18 10 -10 37 -29 59
-42 22 -13 46 -30 53 -37 8 -7 18 -11 23 -8 5 4 9 1 9 -4 0 -6 7 -11 15 -11 8
0 15 -4 15 -10 0 -5 9 -10 20 -10 11 0 20 -4 20 -10 0 -5 6 -10 13 -10 7 0 31
-9 53 -19 21 -11 42 -17 46 -14 5 2 8 -1 8 -7 0 -6 5 -8 10 -5 6 3 10 2 10 -3
0 -8 6 -10 50 -14 11 -1 20 -6 20 -11 0 -5 7 -7 15 -4 8 4 17 2 20 -4 4 -5 11
-7 16 -3 5 3 15 1 22 -4 7 -6 36 -12 65 -14 28 -2 52 -5 52 -8 0 -3 28 -7 63
-8 34 -2 71 -4 82 -6 11 -2 30 1 43 5 14 6 21 5 17 0 -3 -6 4 -9 15 -8 11 1
20 6 20 11 0 6 5 5 11 -1 7 -7 20 -8 33 -4 11 4 35 7 53 6 17 0 30 2 28 5 -2
3 13 7 33 8 45 2 63 5 79 15 6 4 18 4 27 1 9 -3 16 -1 16 5 0 6 3 10 8 9 10
-2 82 19 124 36 18 8 36 13 39 13 3 -1 13 4 22 12 10 7 17 10 17 5 0 -5 4 -4
8 3 4 6 14 13 22 15 8 2 21 9 28 16 8 7 18 10 23 7 5 -4 9 -2 9 3 0 8 33 27
53 31 7 1 23 14 71 57 15 13 31 24 36 24 5 0 21 12 37 28 16 15 38 33 50 41
12 8 20 18 17 23 -3 4 0 8 6 8 6 0 26 16 44 35 19 19 32 35 29 35 -2 0 14 19
36 42 23 22 41 47 41 54 0 7 3 14 8 16 15 6 52 61 46 69 -3 5 -1 9 5 9 5 0 13
9 16 20 4 11 11 18 16 15 5 -4 9 1 9 10 0 9 8 30 17 48 9 18 16 35 15 40 -1 4
2 7 8 7 6 0 9 3 8 8 -1 4 4 21 11 37 16 41 22 60 22 63 -1 1 6 18 14 38 8 20
13 40 10 44 -3 5 -1 10 5 12 5 1 11 21 14 43 2 22 6 47 10 55 12 32 18 111 21
264 l3 159 -31 39 c-37 43 -42 46 -44 18 -1 -12 3 -18 9 -14 5 4 2 -6 -8 -22
-11 -15 -13 -25 -6 -21 17 11 15 -1 -3 -19 -15 -15 -21 -7 -15 21 1 6 -2 6 -6
2 -8 -7 -14 -29 -16 -54 -1 -9 -5 -10 -14 -2 -7 6 -10 17 -7 25 3 8 0 21 -7
29 -9 11 -9 15 -1 15 7 0 9 5 5 12 -4 7 -9 23 -10 36 -4 33 -23 53 -48 48 -18
-3 -21 1 -22 35 -1 25 3 36 10 32 6 -4 6 0 -1 9 -7 8 -11 18 -8 21 3 4 2 4 -2
1 -5 -3 -9 -24 -9 -47 -3 -64 -3 -69 -11 -64 -5 3 -7 -12 -7 -34 1 -21 -3 -42
-8 -45 -6 -4 -5 -10 3 -15 10 -6 10 -9 2 -9 -7 0 -10 -7 -6 -17 5 -12 3 -14
-8 -8 -11 7 -12 6 -2 -6 7 -9 8 -20 3 -29 -5 -8 -7 -17 -4 -21 2 -4 -1 -11 -7
-15 -7 -4 -9 -3 -5 4 3 6 2 14 -4 17 -6 4 -8 15 -5 26 4 11 2 19 -5 19 -6 0
-9 4 -6 9 3 5 -10 8 -29 8 -21 -1 -35 -6 -35 -14 0 -7 6 -11 13 -9 6 1 9 1 5
-1 -5 -3 -8 -11 -8 -19 0 -10 -5 -12 -12 -8 -9 5 -9 2 1 -9 12 -15 9 -21 -11
-18 -5 0 -8 -5 -9 -11 0 -7 -4 -2 -8 12 -4 14 -7 60 -7 103 1 60 -2 77 -13 77
-20 0 -41 32 -31 50 4 8 4 25 -1 38 -10 27 -19 29 -14 2 2 -11 -2 -20 -8 -20
-8 0 -8 -3 -2 -8 15 -10 12 -37 -5 -53 -21 -19 -57 -19 -56 0 1 9 -7 16 -18
16 -15 0 -19 -8 -21 -37 -2 -24 1 -36 7 -32 7 4 7 -2 2 -17 -4 -13 -7 -28 -6
-34 7 -72 7 -117 0 -128 -8 -13 -12 3 -9 32 2 8 -2 10 -11 5 -11 -6 -11 -5 0
8 10 12 10 18 1 23 -8 6 -8 9 1 15 9 5 9 13 1 27 -5 11 -7 23 -4 27 11 10 12
36 2 36 -4 0 -5 7 -2 17 5 12 3 14 -7 8 -8 -5 -11 -4 -6 3 3 6 -2 15 -11 21
-10 5 -15 13 -11 17 5 4 2 14 -5 22 -9 12 -9 14 0 8 17 -9 13 64 -4 82 -7 7
-10 19 -7 27 3 8 2 20 -2 26 -13 22 -13 80 0 72 8 -5 8 -3 -1 8 -6 8 -11 18
-11 22 0 5 -2 10 -4 13 -2 2 -4 -11 -3 -29 0 -17 -4 -35 -10 -39 -6 -5 -5 -8
3 -8 6 0 12 -5 12 -11 0 -5 -6 -7 -12 -3 -10 6 -10 4 0 -8 9 -12 10 -18 2 -23
-6 -4 -9 -13 -6 -20 3 -8 0 -15 -7 -18 -7 -2 -11 -28 -11 -68 -1 -45 -5 -68
-16 -76 -8 -7 -10 -13 -5 -13 6 0 5 -4 -2 -8 -15 -10 -24 -72 -10 -72 5 0 8
-2 5 -5 -8 -9 -38 6 -32 16 5 9 -1 11 -36 11 -31 0 -33 -1 -21 -16 10 -12 9
-13 -8 -9 -26 7 -34 29 -16 47 8 7 11 17 8 20 -12 12 -14 48 -2 41 6 -4 5 2
-2 13 -7 12 -17 18 -21 16 -7 -5 -13 19 -9 39 1 5 -3 6 -9 2 -6 -3 -8 -11 -5
-16 4 -5 -5 -13 -19 -19 -14 -5 -26 -12 -26 -16 0 -3 6 -4 14 -1 11 4 11 1 2
-19 -6 -13 -15 -24 -21 -24 -17 0 -54 61 -50 81 2 11 0 17 -6 14 -5 -4 -7 -10
-4 -15 3 -4 -1 -11 -7 -13 -10 -4 -9 -6 1 -6 11 -1 11 -4 1 -16 -9 -11 -9 -19
-2 -28 7 -8 7 -18 2 -27 -5 -9 -5 -19 2 -27 7 -9 7 -13 -2 -13 -10 0 -10 -3 0
-15 10 -12 10 -15 0 -15 -10 0 -10 -3 0 -15 7 -8 8 -15 3 -15 -5 0 -9 -10 -10
-22 -2 -22 -21 -40 -35 -32 -4 3 -8 1 -8 -5 0 -5 5 -11 12 -13 7 -3 5 -7 -6
-11 -10 -4 -15 -3 -11 3 3 6 2 10 -3 10 -5 0 -9 7 -9 15 0 8 4 12 9 9 4 -3 8
1 8 8 0 10 2 10 9 -1 7 -11 11 -9 20 8 8 15 9 21 1 21 -6 0 -8 5 -4 12 4 7 3
8 -4 4 -6 -4 -9 -12 -6 -19 2 -7 -4 -13 -15 -14 -16 -1 -19 5 -17 38 0 21 -3
41 -9 43 -6 3 -6 5 1 5 13 1 6 60 -10 80 -8 11 -8 13 2 7 7 -4 12 -2 12 4 0 6
5 8 10 5 6 -4 9 -3 8 2 -1 4 4 19 11 32 11 20 11 25 0 32 -8 5 -9 9 -4 9 6 0
3 6 -6 13 -9 7 -18 17 -20 22 -2 6 -8 9 -12 7 -5 -1 -5 3 0 10 11 18 10 32 -2
40 -6 5 -5 8 3 8 7 0 10 5 7 10 -3 6 -2 10 3 10 6 0 8 9 5 20 -3 11 -12 20
-20 20 -8 0 -11 -4 -8 -10 3 -5 1 -10 -6 -10 -9 0 -9 -4 1 -15 6 -8 9 -19 5
-25 -4 -6 -1 -17 5 -25 9 -11 9 -15 1 -15 -6 0 -11 -9 -11 -21 0 -11 -4 -17
-10 -14 -9 6 -14 -10 -13 -42 1 -7 -3 -10 -8 -7 -5 3 -9 0 -9 -5 0 -6 5 -11
11 -11 5 0 8 -4 5 -9 -3 -5 1 -12 10 -15 8 -3 14 -14 12 -23 -2 -11 2 -17 11
-15 12 3 12 0 2 -12 -8 -9 -11 -25 -8 -36 3 -11 0 -23 -5 -27 -6 -3 -8 -1 -5
4 4 6 0 13 -8 17 -8 3 -15 12 -15 20 0 14 -29 31 -38 21 -3 -3 -2 -5 1 -5 4 0
1 -15 -6 -33 -8 -17 -13 -40 -11 -49 1 -10 -2 -20 -7 -24 -5 -3 -7 -10 -3 -15
3 -5 0 -8 -8 -7 -9 2 -13 -10 -13 -42 -1 -25 -4 -51 -8 -57 -5 -7 -4 -13 0
-13 5 0 9 -9 10 -20 1 -11 -3 -20 -8 -20 -6 0 -7 -5 -3 -12 10 -16 12 -139 2
-160 -4 -9 -4 -19 1 -22 4 -3 7 -19 5 -35 l-3 -29 59 1 c34 1 60 -2 60 -8 0
-5 4 -4 9 3 4 8 12 14 16 14 4 0 12 -6 16 -14 6 -8 9 -9 9 -1 0 13 18 12 39
-1 8 -5 12 -5 8 0 -7 12 176 12 185 -1 5 -6 8 -6 8 2 0 9 19 11 40 3 3 -1 10
-1 15 0 9 2 271 3 323 1 25 -1 28 -13 7 -34 -8 -8 -12 -17 -9 -20 3 -3 -7 -29
-22 -59 -16 -29 -27 -56 -26 -60 1 -5 -2 -8 -8 -8 -5 0 -10 -7 -10 -15 0 -8
-4 -15 -10 -15 -5 0 -10 -7 -10 -15 0 -8 -5 -15 -11 -15 -5 0 -8 -4 -5 -8 3
-5 -4 -15 -15 -22 -10 -8 -19 -19 -19 -25 -1 -14 -47 -65 -59 -65 -5 0 -12 -8
-15 -17 -3 -10 -19 -27 -36 -38 -16 -11 -30 -26 -30 -33 0 -7 -4 -11 -9 -8 -4
3 -19 -6 -31 -19 -13 -14 -28 -25 -33 -25 -6 0 -18 -6 -26 -14 -22 -19 -132
-76 -148 -76 -7 0 -13 -5 -13 -12 0 -6 -3 -9 -6 -6 -3 4 -21 0 -40 -8 -19 -8
-39 -12 -44 -9 -6 4 -10 1 -10 -5 0 -7 -7 -10 -15 -6 -8 3 -15 1 -15 -5 0 -6
-4 -8 -9 -5 -5 4 -12 0 -14 -6 -4 -10 -6 -10 -6 0 -1 7 -6 10 -11 7 -15 -9
-58 -17 -105 -19 -22 -1 -46 -5 -53 -10 -7 -4 -12 -2 -12 5 0 8 -4 8 -15 -1
-9 -7 -15 -8 -15 -2 0 12 -33 10 -42 -3 -5 -7 -8 -7 -8 0 0 6 -19 11 -43 12
-40 3 -92 10 -92 13 0 2 -22 7 -55 11 -14 2 -27 7 -30 11 -3 4 -17 10 -30 12
-14 2 -27 5 -30 6 -3 2 -8 2 -12 1 -5 0 -8 4 -8 10 0 5 -4 8 -8 5 -5 -3 -21 4
-38 15 -16 10 -37 19 -46 19 -10 0 -18 5 -18 10 0 6 -7 10 -15 10 -8 0 -15 5
-15 10 0 6 -9 10 -20 10 -11 0 -20 7 -20 15 0 9 -6 12 -15 8 -9 -3 -15 -2 -13
3 2 5 0 9 -4 9 -4 0 -14 9 -22 20 -9 11 -16 17 -16 13 0 -12 -110 98 -110 110
0 7 -3 11 -7 10 -5 -2 -9 0 -11 4 -1 4 -16 22 -32 39 -16 18 -27 36 -24 41 3
4 -2 8 -11 8 -9 0 -14 4 -10 9 3 5 -1 15 -7 23 -7 7 -24 36 -38 63 -14 28 -29
53 -33 56 -5 3 -8 8 -6 10 2 4 0 14 -17 67 -2 6 -6 20 -8 30 -3 9 -5 19 -6 22
-1 3 -2 8 -1 13 0 4 -3 7 -8 7 -4 0 -7 11 -6 25 2 14 0 25 -3 25 -9 0 -14 56
-15 180 0 120 4 190 13 190 3 0 7 14 8 30 1 17 9 50 18 73 8 23 16 48 16 55 1
6 5 12 10 12 5 0 7 4 3 9 -3 5 1 15 8 23 8 7 12 18 10 24 -2 7 3 19 12 28 9 9
13 16 8 16 -4 0 -3 4 2 8 6 4 19 24 30 45 11 20 23 37 27 37 3 0 9 8 12 18 3
10 26 40 51 67 25 28 45 54 45 58 0 5 5 5 10 2 5 -3 10 1 10 10 0 9 5 13 10
10 6 -3 13 0 16 8 6 17 152 124 161 119 3 -2 9 0 12 5 11 16 92 54 102 48 5
-4 11 0 14 7 3 8 15 14 26 15 11 1 34 9 51 17 38 19 41 20 32 4 -6 -10 -4 -10
8 0 9 7 30 14 47 15 17 1 31 5 31 8 0 4 14 5 30 4 17 -1 30 0 30 4 0 8 113 7
127 -2 6 -4 14 -3 17 2 4 5 19 6 34 3 15 -4 39 -7 55 -6 15 0 27 -2 27 -5 0
-4 10 -8 23 -9 50 -3 72 -7 78 -15 3 -4 16 -9 27 -10 12 -1 22 -5 22 -9 0 -4
3 -7 8 -7 24 4 42 -2 36 -13 -4 -7 -3 -8 5 -4 12 8 121 -41 133 -60 4 -7 19
-15 33 -18 14 -4 25 -11 25 -16 0 -6 5 -10 10 -10 18 0 143 -117 208 -195 21
-25 36 -35 39 -27 2 6 9 10 14 6 5 -3 9 1 9 10 0 8 4 16 9 18 5 2 30 22 54 45
25 23 48 39 52 35 4 -4 5 -2 3 5 -3 12 77 93 92 93 12 0 3 44 -10 48 -5 2 -10
10 -10 18 0 8 -4 14 -10 14 -5 0 -10 8 -10 17 0 9 -3 13 -7 10 -3 -4 -30 18
-59 48 -28 30 -56 55 -62 55 -5 0 -12 7 -16 15 -3 8 -17 20 -31 27 -14 6 -25
18 -25 25 0 8 -4 11 -10 8 -5 -3 -10 -1 -10 5 0 6 -4 8 -10 5 -5 -3 -10 1 -10
9 0 9 -7 16 -15 16 -8 0 -24 9 -35 20 -11 11 -20 17 -20 14 0 -4 -7 -1 -15 6
-8 7 -15 9 -15 4 0 -4 -10 2 -22 14 -24 22 -124 72 -145 72 -7 0 -13 5 -13 11
0 5 -4 8 -9 4 -5 -3 -13 0 -16 6 -4 5 -13 8 -21 5 -7 -3 -19 0 -26 7 -7 7 -24
12 -38 12 -14 0 -27 3 -31 7 -3 4 -18 9 -35 11 -16 2 -40 9 -53 16 -14 8 -21
9 -17 2 4 -6 2 -11 -3 -11 -6 0 -11 4 -11 9 0 5 -14 7 -30 6 -17 -1 -33 1 -36
6 -3 5 -13 5 -23 -1 -10 -5 -22 -6 -26 -2 -11 11 -205 9 -205 -3 0 -6 -3 -6
-8 1 -4 7 -18 8 -35 3z m497 -1037 c3 -5 -1 -9 -9 -9 -8 0 -12 4 -9 9 3 4 7 8
9 8 2 0 6 -4 9 -8z m236 -132 c11 -7 11 -10 2 -10 -8 0 -10 -5 -6 -12 5 -8 2
-9 -9 -5 -10 3 -17 2 -17 -4 0 -6 -5 -7 -11 -3 -8 5 -6 10 5 16 9 5 14 13 11
19 -8 12 6 11 25 -1z m-4 -49 c-4 -5 0 -12 6 -14 8 -3 6 -6 -4 -6 -10 -1 -18
3 -18 9 0 5 -8 7 -17 4 -15 -5 -16 -4 -3 5 18 13 43 14 36 2z m0 -35 c18 -14
17 -15 -11 -11 -16 2 -31 4 -33 4 -6 2 9 21 17 21 4 0 16 -6 27 -14z"/>
<path d="M1995 2500 c3 -5 8 -10 11 -10 2 0 4 5 4 10 0 6 -5 10 -11 10 -5 0
-7 -4 -4 -10z"/>
<path d="M1590 1909 c0 -5 5 -7 10 -4 6 3 10 8 10 11 0 2 -4 4 -10 4 -5 0 -10
-5 -10 -11z"/>
<path d="M2430 1760 c0 -5 5 -10 11 -10 5 0 7 5 4 10 -3 6 -8 10 -11 10 -2 0
-4 -4 -4 -10z"/>
<path d="M2486 1762 c-2 -4 -1 -14 4 -22 7 -11 9 -9 7 8 -1 24 -3 26 -11 14z"/>
<path d="M1685 1740 c-3 -5 -1 -10 4 -10 6 0 11 5 11 10 0 6 -2 10 -4 10 -3 0
-8 -4 -11 -10z"/>
<path d="M1680 1710 c-9 -6 -10 -10 -3 -10 6 0 15 5 18 10 8 12 4 12 -15 0z"/>
<path d="M2485 1668 c5 -24 25 -49 25 -31 0 7 -5 15 -10 18 -8 5 -7 11 1 21 9
11 8 14 -4 14 -11 0 -15 -7 -12 -22z"/>
</g>
</svg>
